<?xml version="1.0" standalone="no"?>
<!DOCTYPE svg PUBLIC "-//W3C//DTD SVG 20010904//EN"
 "http://www.w3.org/TR/2001/REC-SVG-20010904/DTD/svg10.dtd">
<svg version="1.0" xmlns="http://www.w3.org/2000/svg"
 width="1000.000000pt" height="1000.000000pt" viewBox="0 0 1000.000000 1000.000000"
 preserveAspectRatio="xMidYMid meet">
<metadata>
Created by potrace 1.14, written by Peter Selinger 2001-2017
</metadata>
<g transform="translate(0.000000,1000.000000) scale(0.100000,-0.100000)"
fill="#000000" stroke="none">
<path d="M3818 5373 c-48 -54 -73 -250 -65 -498 11 -314 65 -442 183 -439 82
2 132 64 160 196 12 57 15 121 12 293 -4 200 -6 226 -28 290 -39 112 -116 175
-216 175 -17 0 -38 -8 -46 -17z m164 -83 c44 -48 50 -93 52 -380 1 -252 0
-268 -21 -324 -29 -77 -49 -98 -87 -94 -40 4 -62 47 -83 160 -19 99 -21 541
-3 607 20 76 88 91 142 31z"/>
<path d="M4311 5360 c-14 -24 -19 -61 -24 -182 -9 -192 -9 -587 0 -656 6 -55
26 -78 57 -66 20 8 31 43 17 57 -8 8 -11 123 -11 371 0 224 4 356 9 351 24
-24 234 -636 246 -716 8 -54 24 -71 62 -63 24 5 33 13 37 33 23 107 53 822 37
864 -12 31 -24 39 -45 31 -14 -5 -16 -27 -16 -138 0 -153 -17 -551 -26 -616
-4 -30 -8 -39 -14 -30 -4 8 -33 107 -65 219 -107 384 -183 571 -232 571 -7 0
-22 -14 -32 -30z"/>
<path d="M5130 5380 c-26 -16 2 -44 56 -55 l49 -11 2 -54 c2 -30 10 -179 18
-330 9 -151 17 -317 20 -369 4 -98 13 -118 47 -100 24 13 24 126 -2 459 -11
140 -20 288 -20 328 l0 72 36 0 c19 0 44 5 55 10 23 13 25 46 3 54 -25 10
-248 7 -264 -4z"/>
<path d="M5572 5378 c-16 -16 -17 -824 -1 -881 12 -45 36 -58 56 -31 12 16 13
53 7 211 -4 105 -4 198 -1 206 4 11 16 12 66 4 l61 -10 0 -166 c0 -162 8 -233
28 -253 12 -12 48 -2 55 16 3 8 -1 182 -8 387 -8 206 -15 409 -15 452 l0 78
-32 -3 -33 -3 4 -222 3 -223 -66 0 -66 0 0 209 c0 177 -2 212 -16 225 -19 19
-26 20 -42 4z"/>
<path d="M6051 5371 c-21 -21 -21 -28 -21 -460 l0 -440 22 -15 c35 -25 159
-22 189 4 24 20 24 20 5 35 -13 10 -42 15 -83 15 l-63 0 0 220 0 220 41 0 c47
0 79 14 79 36 0 18 -40 34 -86 34 l-34 0 0 145 c0 80 1 145 3 145 2 0 27 -7
56 -16 49 -14 54 -14 72 2 10 9 19 21 19 25 0 16 -32 39 -68 48 -90 24 -109
24 -131 2z"/>
<path d="M4804 3996 c-54 -24 -70 -102 -51 -246 15 -111 6 -1080 -14 -1435
-19 -346 -23 -652 -10 -696 18 -60 46 -73 144 -67 342 22 521 349 468 859 -19
181 -52 281 -122 371 l-29 36 39 74 c51 94 78 194 92 338 21 213 -3 392 -72
537 -57 120 -154 193 -301 228 -77 18 -104 18 -144 1z m263 -226 c43 -84 57
-178 57 -395 0 -161 -3 -213 -17 -264 -31 -113 -74 -171 -139 -187 l-28 -6 0
373 c0 356 7 473 30 534 l10 27 32 -19 c18 -10 42 -39 55 -63z m-70 -1079 c38
-24 89 -97 114 -163 52 -134 68 -446 30 -568 -37 -117 -126 -218 -197 -223
l-29 -2 0 120 c1 160 14 647 21 763 4 60 10 92 17 92 7 0 26 -9 44 -19z"/>
<path d="M3894 3953 c-21 -48 -30 -112 -48 -323 -36 -410 -184 -1205 -342
-1832 -19 -75 -34 -146 -34 -157 0 -34 56 -71 106 -71 79 0 107 52 139 255 27
174 56 320 65 329 9 9 330 -32 351 -44 17 -11 59 -315 59 -431 0 -68 23 -103
78 -119 61 -16 89 -13 111 16 29 37 27 106 -8 305 -56 312 -62 355 -71 489
-17 240 -30 368 -80 771 -27 217 -54 481 -60 585 -6 104 -16 199 -21 212 -13
34 -67 52 -154 52 l-76 0 -15 -37z m151 -734 c38 -382 52 -575 59 -816 l4
-163 -36 0 c-48 0 -208 26 -250 41 -29 10 -32 14 -27 43 3 17 17 108 30 201
31 206 71 448 130 779 25 137 45 254 45 260 0 5 2 7 5 4 3 -2 21 -159 40 -349z"/>
<path d="M2563 3950 c-69 -31 -69 -91 1 -124 18 -9 83 -22 142 -29 l109 -12 7
-150 c15 -313 50 -902 70 -1195 11 -168 23 -416 25 -552 l5 -247 33 -26 c31
-23 36 -24 71 -12 20 6 47 25 58 40 20 27 21 40 18 185 -3 178 -16 423 -38
687 -45 564 -54 686 -64 842 -5 95 -10 229 -10 299 l0 126 28 -6 c15 -3 61 -9
102 -12 59 -5 83 -3 107 9 35 19 58 66 49 102 -12 47 -41 55 -223 66 -92 5
-215 13 -273 19 -148 13 -170 12 -217 -10z"/>
<path d="M5857 3940 c-23 -19 -45 -69 -62 -145 -10 -45 -7 -327 5 -439 10
-100 1 -577 -20 -996 -5 -107 -13 -314 -16 -460 -7 -244 -6 -269 11 -304 11
-23 31 -44 51 -54 31 -14 38 -14 91 3 73 24 201 24 312 0 87 -19 114 -16 154
16 33 25 36 75 7 111 -28 36 -93 49 -229 47 -135 -2 -152 4 -183 64 -29 57
-33 184 -17 597 8 179 14 537 14 795 0 259 4 529 9 601 l9 132 -26 26 c-32 32
-74 34 -110 6z"/>
<path d="M6807 3930 c-66 -53 -82 -146 -63 -378 11 -127 12 -225 4 -455 -21
-634 -11 -1429 20 -1495 26 -57 48 -62 271 -62 205 0 235 4 271 40 26 26 27
83 1 109 -28 28 -72 34 -236 29 l-144 -3 -7 53 c-3 29 -1 218 6 419 7 202 10
433 6 515 l-7 149 118 -7 c112 -6 119 -5 146 16 38 30 49 62 36 100 -18 51
-58 65 -185 64 l-112 -1 -6 38 c-3 21 -1 123 4 226 6 103 10 249 9 323 -2 74
0 137 4 139 13 6 89 -9 176 -35 46 -14 94 -23 106 -20 32 8 85 72 85 101 0 28
-25 57 -69 79 -65 34 -207 68 -306 73 -92 5 -102 4 -128 -17z"/>
</g>
</svg>
